# Blender v2.56 (sub 0) OBJ File: 'untitled.blend'
# www.blender.org
o Mesh.001_cylinder3_cylinder3_a
v 1.000000 3.002318 -0.000000
v 0.990000 2.958488 -0.000000
v 0.857365 2.958488 -0.495000
v 0.866025 3.002318 -0.500000
v 0.866025 3.002318 0.500000
v 0.857365 2.958488 0.495000
v 0.500000 3.002318 0.866025
v 0.495000 2.958488 0.857365
v 0.000000 3.002318 1.000000
v 0.000000 2.958488 0.990000
v -0.500000 3.002318 0.866025
v -0.495000 2.958488 0.857365
v -0.866025 3.002318 0.500000
v -0.857365 2.958488 0.495000
v -1.000000 3.002318 -0.000000
v -0.990000 2.958488 -0.000000
v -0.866025 3.002318 -0.500000
v -0.857365 2.958488 -0.495000
v -0.500000 3.002318 -0.866026
v -0.495000 2.958488 -0.857365
v -0.000000 3.002318 -1.000000
v -0.000000 2.958488 -0.990000
v 0.500000 3.002318 -0.866026
v 0.495000 2.958488 -0.857365
v 1.000000 -0.000000 -0.000000
v -0.000000 0.020464 -0.000000
v 0.866025 -0.000000 -0.500000
v 0.866025 0.000000 0.500000
v 0.500000 0.000000 0.866025
v 0.000000 0.000000 1.000000
v -0.500000 0.000000 0.866025
v -0.866025 0.000000 0.500000
v -1.000000 0.000000 0.000000
v -0.866025 -0.000000 -0.500000
v -0.500000 -0.000000 -0.866025
v -0.000000 -0.000000 -1.000000
v 0.500000 -0.000000 -0.866025
v -0.557780 2.999311 0.001743
v -0.557950 3.006464 0.001743
v -0.595142 3.005576 0.088070
v -0.594971 2.998423 0.088070
v -0.678809 2.996421 -0.122807
v -0.678980 3.003574 -0.122807
v -0.592677 3.005635 -0.085606
v -0.592507 2.998482 -0.085606
v -0.803324 2.993447 -0.001743
v -0.803495 3.000600 -0.001743
v -0.766304 3.001488 -0.088070
v -0.766133 2.994335 -0.088070
v -0.682294 2.996337 0.122807
v -0.682465 3.003490 0.122807
v -0.768768 3.001430 0.085605
v -0.768597 2.994277 0.085605
v -0.682405 3.017496 0.094985
v -0.680983 2.981519 0.055357
v -0.719885 2.980591 0.038588
v -0.749155 3.015902 0.066211
v -0.614864 3.019109 0.068118
v -0.641621 2.982460 0.039699
v -0.586099 3.019796 0.001348
v -0.624856 2.982860 0.000786
v -0.612958 3.019154 -0.066211
v -0.640510 2.982486 -0.038588
v -0.679709 3.017560 -0.094985
v -0.679412 2.981557 -0.055357
v -0.747249 3.015947 -0.068118
v -0.718774 2.980617 -0.039699
v -0.776015 3.015260 -0.001348
v -0.735539 2.980217 -0.000786
v 0.970000 2.988846 -0.000000
v 0.840045 2.988846 0.485000
v 0.485000 2.988846 0.840044
v 0.000000 2.988846 0.970000
v -0.485000 2.988846 0.840044
v -0.840045 2.988846 0.485000
v -0.970000 2.988846 -0.000000
v -0.840045 2.988846 -0.485000
v -0.485000 2.988846 -0.840045
v -0.000000 2.988846 -0.970000
v 0.485000 2.988846 -0.840045
v 0.840045 2.988846 -0.485000
v 0.990000 0.062357 -0.000000
v 0.857365 0.062357 0.495000
v 0.495000 0.062357 0.857365
v 0.000000 0.062357 0.990000
v -0.495000 0.062357 0.857365
v -0.857365 0.062357 0.495000
v -0.990000 0.062357 -0.000000
v -0.857365 0.062357 -0.495000
v -0.495000 0.062357 -0.857365
v -0.000000 0.062357 -0.990000
v 0.495000 0.062357 -0.857365
v 0.857365 0.062357 -0.495000
v -0.000000 3.008416 -0.000000
v -0.611916 3.005175 0.070808
v -0.682124 3.003499 0.098737
v -0.582014 3.005889 0.001401
v -0.609934 3.005222 -0.068827
v -0.679322 3.003565 -0.098737
v -0.749530 3.001889 -0.070809
v -0.779432 3.001175 -0.001401
v -0.751511 3.001842 0.068827
v -0.582014 3.005889 0.001401
v -0.611916 3.005175 0.070808
v -0.682124 3.003499 0.098737
v -0.751511 3.001842 0.068827
v -0.779432 3.001175 -0.001401
v -0.749530 3.001889 -0.070809
v -0.679322 3.003565 -0.098737
v -0.609934 3.005222 -0.068827
v -0.000000 -0.000000 -1.000000
v -0.500000 -0.000000 -0.866025
v -0.866025 -0.000000 -0.500000
v -1.000000 0.000000 0.000000
v -0.866025 0.000000 0.500000
v -0.500000 0.000000 0.866025
v 0.000000 0.000000 1.000000
v 0.500000 0.000000 0.866025
v 0.866025 0.000000 0.500000
v 1.000000 -0.000000 -0.000000
v 0.866025 -0.000000 -0.500000
v 0.500000 -0.000000 -0.866025
v 0.000000 3.002318 1.000000
v 0.500000 3.002318 0.866025
v 0.866025 3.002318 0.500000
v 1.000000 3.002318 -0.000000
v 0.866025 3.002318 -0.500000
v 0.500000 3.002318 -0.866026
v -0.000000 3.002318 -1.000000
v -0.500000 3.002318 -0.866026
v -0.866025 3.002318 -0.500000
v -1.000000 3.002318 -0.000000
v -0.866025 3.002318 0.500000
v -0.500000 3.002318 0.866025
v -0.803324 2.993447 -0.001743
v -0.766133 2.994335 -0.088070
v -0.678809 2.996421 -0.122807
v -0.592507 2.998482 -0.085606
v -0.557780 2.999311 0.001743
v -0.594971 2.998423 0.088070
v -0.682294 2.996337 0.122807
v -0.768597 2.994277 0.085605
vt 0.263236 0.498365
vt 0.263358 0.491118
vt 0.344297 0.491118
vt 0.344198 0.498365
vt 0.179054 0.498365
vt 0.179169 0.491118
vt 0.091642 0.498365
vt 0.091712 0.491118
vt 0.002138 0.498365
vt 0.002138 0.491118
vt 0.908358 0.498365
vt 0.908288 0.491118
vt 0.997862 0.491118
vt 0.997862 0.498365
vt 0.820946 0.498365
vt 0.820831 0.491118
vt 0.736764 0.498365
vt 0.736642 0.491118
vt 0.655802 0.498365
vt 0.655703 0.491118
vt 0.577265 0.498365
vt 0.577211 0.491118
vt 0.500000 0.498365
vt 0.500000 0.491118
vt 0.422735 0.498365
vt 0.422789 0.491118
vt 0.507804 0.744091
vt 0.750790 0.744077
vt 0.540351 0.865559
vt 0.540337 0.622620
vt 0.629309 0.533639
vt 0.750858 0.501092
vt 0.872318 0.533666
vt 0.961229 0.622596
vt 0.993776 0.744064
vt 0.961242 0.865535
vt 0.872271 0.954516
vt 0.750722 0.987063
vt 0.629261 0.954489
vt 0.112240 0.750723
vt 0.107432 0.750767
vt 0.099916 0.733196
vt 0.103280 0.729760
vt 0.082667 0.780796
vt 0.082608 0.776011
vt 0.100313 0.768500
vt 0.103721 0.771872
vt 0.052764 0.751406
vt 0.057558 0.751349
vt 0.064987 0.768892
vt 0.061648 0.772292
vt 0.082153 0.721307
vt 0.082182 0.726114
vt 0.064574 0.733656
vt 0.061125 0.730336
vt 0.082176 0.737185
vt 0.082309 0.744300
vt 0.077594 0.746321
vt 0.072582 0.741205
vt 0.092145 0.741146
vt 0.087182 0.746205
vt 0.096467 0.750826
vt 0.089248 0.750933
vt 0.092498 0.760691
vt 0.087345 0.755741
vt 0.082554 0.765022
vt 0.082473 0.757874
vt 0.072494 0.761216
vt 0.077611 0.756020
vt 0.068530 0.751224
vt 0.075610 0.751191
vt 0.493649 0.752390
vt 0.485567 0.752346
vt 0.453563 0.633648
vt 0.460503 0.629612
vt 0.366960 0.547029
vt 0.370980 0.540089
vt 0.248695 0.515194
vt 0.248708 0.507169
vt 0.130350 0.546766
vt 0.126336 0.539819
vt 0.043856 0.633110
vt 0.036933 0.629103
vt 0.012160 0.750825
vt 0.004160 0.750799
vt 0.043058 0.868927
vt 0.036054 0.872929
vt 0.129836 0.955453
vt 0.125864 0.962399
vt 0.247627 0.987422
vt 0.247586 0.995417
vt 0.365844 0.956776
vt 0.369790 0.963755
vt 0.453287 0.870907
vt 0.460235 0.874988
vt 0.263236 0.001935
vt 0.263358 0.012246
vt 0.179169 0.012246
vt 0.179054 0.001935
vt 0.091712 0.012246
vt 0.091642 0.001935
vt 0.002138 0.012246
vt 0.002138 0.001935
vt 0.997862 0.001935
vt 0.997862 0.012246
vt 0.908288 0.012246
vt 0.908358 0.001935
vt 0.820831 0.012246
vt 0.820946 0.001935
vt 0.736642 0.012246
vt 0.736764 0.001935
vt 0.655703 0.012246
vt 0.655802 0.001935
vt 0.577211 0.012246
vt 0.577265 0.001935
vt 0.500000 0.012246
vt 0.500000 0.001935
vt 0.422789 0.012246
vt 0.422735 0.001935
vt 0.344297 0.012246
vt 0.344198 0.001935
vt 0.248335 0.751521
vt 0.095828 0.737381
vt 0.082138 0.731928
vt 0.101717 0.750771
vt 0.096241 0.764378
vt 0.082598 0.770258
vt 0.068871 0.764941
vt 0.063297 0.751286
vt 0.068833 0.737553
vn 0.974944 -0.222419 0.000000
vn 0.993683 -0.112003 0.000000
vn 0.860561 -0.112003 -0.496841
vn 0.844325 -0.222419 -0.487472
vn 0.844325 -0.222419 0.487472
vn 0.860561 -0.112003 0.496841
vn 0.487472 -0.222419 0.844325
vn 0.496841 -0.112003 0.860561
vn 0.000000 -0.222419 0.974944
vn 0.000000 -0.112003 0.993683
vn -0.487472 -0.222419 0.844325
vn -0.496841 -0.112003 0.860561
vn -0.844325 -0.222419 0.487472
vn -0.860561 -0.112003 0.496841
vn -0.974944 -0.222419 0.000000
vn -0.993683 -0.112003 0.000000
vn -0.844325 -0.222419 -0.487472
vn -0.860561 -0.112003 -0.496841
vn -0.487472 -0.222419 -0.844325
vn -0.496841 -0.112003 -0.860561
vn 0.000000 -0.222419 -0.974944
vn 0.000000 -0.112003 -0.993683
vn 0.487472 -0.222419 -0.844325
vn 0.496841 -0.112003 -0.860561
vn -0.020447 -0.999786 0.000000
vn 0.000000 -1.000000 0.000000
vn -0.017701 -0.999786 0.010224
vn -0.017701 -0.999786 -0.010224
vn -0.010224 -0.999786 -0.017701
vn 0.000000 -0.999786 -0.020447
vn 0.010224 -0.999786 -0.017701
vn 0.017701 -0.999786 -0.010224
vn 0.020447 -0.999786 0.000000
vn 0.017701 -0.999786 0.010224
vn 0.010224 -0.999786 0.017701
vn 0.000000 -0.999786 0.020447
vn -0.010224 -0.999786 0.017701
vn 0.999603 0.023865 0.014191
vn 0.660787 0.750481 0.009613
vn 0.455306 0.745567 0.486587
vn 0.696799 0.016633 0.717063
vn 0.014161 0.000336 -0.999878
vn -0.007904 0.734519 -0.678518
vn 0.468917 0.745903 -0.472976
vn 0.716849 0.017090 -0.696982
vn -0.999603 -0.023865 -0.014191
vn -0.695853 0.718101 -0.009613
vn -0.490371 0.722983 -0.486587
vn -0.696799 -0.016633 -0.717063
vn -0.014161 -0.000336 0.999878
vn -0.027161 0.734062 0.678518
vn -0.503983 0.722678 0.472976
vn -0.716849 -0.017090 0.696982
vn -0.026673 0.967162 0.252724
vn -0.014374 0.882015 -0.470962
vn 0.178442 0.964263 -0.195776
vn -0.204260 0.962920 0.176153
vn 0.152989 0.971435 0.181219
vn -0.268746 0.929197 -0.253578
vn 0.229530 0.973266 0.003571
vn -0.303690 0.952757 -0.003967
vn 0.158086 0.971557 -0.176153
vn -0.224250 0.954650 0.195776
vn -0.019501 0.967315 -0.252724
vn -0.027711 0.881710 0.470962
vn -0.199194 0.963042 -0.181219
vn 0.224097 0.940977 0.253578
vn -0.275735 0.961211 -0.003571
vn 0.257851 0.966155 0.003967
vn -0.409650 0.912229 0.000000
vn -0.198950 0.979980 0.000000
vn -0.172277 0.979980 -0.099460
vn -0.354778 0.912229 -0.204810
vn -0.099460 0.979980 -0.172277
vn -0.204810 0.912229 -0.354778
vn 0.000000 0.979980 -0.198950
vn 0.000000 0.912229 -0.409650
vn 0.099460 0.979980 -0.172277
vn 0.204810 0.912229 -0.354778
vn 0.087466 0.994842 -0.050813
vn 0.354778 0.912229 -0.204810
vn 0.119297 0.992828 0.000000
vn 0.409650 0.912229 0.000000
vn 0.087588 0.994842 0.050783
vn 0.354778 0.912229 0.204810
vn 0.099460 0.979980 0.172277
vn 0.204810 0.912229 0.354778
vn 0.000000 0.979980 0.198950
vn 0.000000 0.912229 0.409650
vn -0.099460 0.979980 0.172277
vn -0.204810 0.912229 0.354778
vn -0.172277 0.979980 0.099460
vn -0.354778 0.912229 0.204810
vn 0.987365 0.158330 0.000000
vn 0.996826 0.079440 0.000000
vn 0.863277 0.079440 0.498398
vn 0.855098 0.158330 0.493667
vn 0.498398 0.079440 0.863277
vn 0.493667 0.158330 0.855098
vn 0.000000 0.079440 0.996826
vn 0.000000 0.158330 0.987365
vn -0.498398 0.079440 0.863277
vn -0.493667 0.158330 0.855098
vn -0.863277 0.079440 0.498398
vn -0.855098 0.158330 0.493667
vn -0.996826 0.079440 0.000000
vn -0.987365 0.158330 0.000000
vn -0.863277 0.079440 -0.498398
vn -0.855098 0.158330 -0.493667
vn -0.498398 0.079440 -0.863277
vn -0.493667 0.158330 -0.855098
vn 0.000000 0.079440 -0.996826
vn 0.000000 0.158330 -0.987365
vn 0.498398 0.079440 -0.863277
vn 0.493667 0.158330 -0.855098
vn 0.863277 0.079440 -0.498398
vn 0.855098 0.158330 -0.493667
vn -0.001526 0.999969 0.000000
vn -0.016419 0.999786 -0.010254
vn -0.028443 0.999573 -0.006165
vn -0.022858 0.999664 -0.010712
vn -0.028504 0.999573 0.006073
vn -0.027589 0.999603 -0.000061
vn -0.016572 0.999786 0.010254
vn -0.023255 0.999664 0.010529
vn -0.016297 0.999847 0.000122
vn -0.023865 0.999695 0.000000
vn -0.019868 0.258461 0.965789
vn -0.698599 0.242256 0.673208
vn 0.666860 0.274880 0.692618
vn 0.959349 0.281869 0.013703
vn 0.686239 0.275338 -0.673238
vn 0.007508 0.259133 -0.965789
vn -0.679220 0.242714 -0.692618
vn -0.971709 0.235755 -0.013703
usemtl drum_normals
s 1
f 1/1/1 2/2/2 3/3/3 4/4/4
f 2/2/2 1/1/1 5/5/5 6/6/6
f 7/7/7 8/8/8 6/6/6 5/5/5
f 9/9/9 10/10/10 8/8/8 7/7/7
f 11/11/11 12/12/12 10/13/10 9/14/9
f 13/15/13 14/16/14 12/12/12 11/11/11
f 15/17/15 16/18/16 14/16/14 13/15/13
f 17/19/17 18/20/18 16/18/16 15/17/15
f 19/21/19 20/22/20 18/20/18 17/19/17
f 21/23/21 22/24/22 20/22/20 19/21/19
f 23/25/23 24/26/24 22/24/22 21/23/21
f 4/4/4 3/3/3 24/26/24 23/25/23
f 25/27/25 26/28/26 27/29/27
f 28/30/28 26/28/26 25/27/25
f 29/31/29 26/28/26 28/30/28
f 30/32/30 26/28/26 29/31/29
f 31/33/31 26/28/26 30/32/30
f 32/34/32 26/28/26 31/33/31
f 33/35/33 26/28/26 32/34/32
f 34/36/34 26/28/26 33/35/33
f 35/37/35 26/28/26 34/36/34
f 36/38/36 26/28/26 35/37/35
f 37/39/37 26/28/26 36/38/36
f 27/29/27 26/28/26 37/39/37
f 38/40/38 39/41/39 40/42/40 41/43/41
f 42/44/42 43/45/43 44/46/44 45/47/45
f 46/48/46 47/49/47 48/50/48 49/51/49
f 50/52/50 51/53/51 52/54/52 53/55/53
f 41/43/41 40/42/40 51/53/51 50/52/50
f 45/47/45 44/46/44 39/41/39 38/40/38
f 49/51/49 48/50/48 43/45/43 42/44/42
f 53/55/53 52/54/52 47/49/47 46/48/46
f 54/56/54 55/57/55 56/58/56 57/59/57
f 58/60/58 59/61/59 55/57/55 54/56/54
f 60/62/60 61/63/61 59/61/59 58/60/58
f 62/64/62 63/65/63 61/63/61 60/62/60
f 64/66/64 65/67/65 63/65/63 62/64/62
f 66/68/66 67/69/67 65/67/65 64/66/64
f 68/70/68 69/71/69 67/69/67 66/68/66
f 57/59/57 56/58/56 69/71/69 68/70/68
f 126/72/70 70/73/71 71/74/72 125/75/73
f 125/75/73 71/74/72 72/76/74 124/77/75
f 124/77/75 72/76/74 73/78/76 123/79/77
f 123/79/77 73/78/76 74/80/78 134/81/79
f 134/81/79 74/80/78 75/82/80 133/83/81
f 133/83/81 75/82/80 76/84/82 132/85/83
f 132/85/83 76/84/82 77/86/84 131/87/85
f 131/87/85 77/86/84 78/88/86 130/89/87
f 130/89/87 78/88/86 79/90/88 129/91/89
f 129/91/89 79/90/88 80/92/90 128/93/91
f 128/93/91 80/92/90 81/94/92 127/95/93
f 70/73/71 126/72/70 127/95/93 81/94/92
f 120/96/94 82/97/95 83/98/96 119/99/97
f 119/99/97 83/98/96 84/100/98 118/101/99
f 118/101/99 84/100/98 85/102/100 117/103/101
f 117/104/101 85/105/100 86/106/102 116/107/103
f 116/107/103 86/106/102 87/108/104 115/109/105
f 115/109/105 87/108/104 88/110/106 114/111/107
f 114/111/107 88/110/106 89/112/108 113/113/109
f 113/113/109 89/112/108 90/114/110 112/115/111
f 112/115/111 90/114/110 91/116/112 111/117/113
f 111/117/113 91/116/112 92/118/114 122/119/115
f 122/119/115 92/118/114 93/120/116 121/121/117
f 121/121/117 93/120/116 82/97/95 120/96/94
f 71/74/72 94/122/118 72/76/74
f 70/73/71 94/122/118 71/74/72
f 81/94/92 94/122/118 70/73/71
f 80/92/90 94/122/118 81/94/92
f 79/90/88 94/122/118 80/92/90
f 78/88/86 94/122/118 79/90/88
f 77/86/84 94/122/118 78/88/86
f 77/86/84 138/47/119 94/122/118
f 77/86/84 136/51/120 137/44/121
f 76/84/82 136/51/120 77/86/84
f 76/84/82 142/55/122 135/48/123
f 75/82/80 94/122/118 140/43/124
f 75/82/80 140/43/124 141/52/125
f 75/82/80 142/55/122 76/84/82
f 74/80/78 94/122/118 75/82/80
f 73/78/76 94/122/118 74/80/78
f 72/76/74 94/122/118 73/78/76
f 94/122/118 138/47/119 139/40/126
f 139/40/126 140/43/124 94/122/118
f 137/44/121 138/47/119 77/86/84
f 135/48/123 136/51/120 76/84/82
f 141/52/125 142/55/122 75/82/80
f 40/42/40 95/123/127 96/124/127 51/53/51
f 39/41/39 97/125/127 95/123/127 40/42/40
f 44/46/44 98/126/127 97/125/127 39/41/39
f 43/45/43 99/127/127 98/126/127 44/46/44
f 48/50/48 100/128/127 99/127/127 43/45/43
f 47/49/47 101/129/127 100/128/127 48/50/48
f 52/54/52 102/130/127 101/129/127 47/49/47
f 51/53/51 96/124/127 102/130/127 52/54/52
f 3/3/3 2/2/2 82/97/95 93/120/116
f 93/120/116 92/118/114 24/26/24 3/3/3
f 92/118/114 91/116/112 22/24/22 24/26/24
f 91/116/112 90/114/110 20/22/20 22/24/22
f 90/114/110 89/112/108 18/20/18 20/22/20
f 89/112/108 88/110/106 16/18/16 18/20/18
f 88/110/106 87/108/104 14/16/14 16/18/16
f 87/108/104 86/106/102 12/12/12 14/16/14
f 86/106/102 85/105/100 10/13/10 12/12/12
f 85/102/100 84/100/98 8/8/8 10/10/10
f 84/100/98 83/98/96 6/6/6 8/8/8
f 83/98/96 82/97/95 2/2/2 6/6/6
f 105/124/128 54/56/54 57/59/57 106/130/129
f 104/123/130 58/60/58 54/56/54 105/124/128
f 103/125/131 60/62/60 58/60/58 104/123/130
f 110/126/132 62/64/62 60/62/60 103/125/131
f 109/127/133 64/66/64 62/64/62 110/126/132
f 108/128/134 66/68/66 64/66/64 109/127/133
f 107/129/135 68/70/68 66/68/66 108/128/134
f 106/130/129 57/59/57 68/70/68 107/129/135
f 63/65/63 65/67/65 67/69/67
f 63/65/63 67/69/67 69/71/69
f 61/63/61 63/65/63 69/71/69
f 61/63/61 69/71/69 56/58/56
f 59/61/59 61/63/61 56/58/56
f 59/61/59 56/58/56 55/57/55
